<?xml version="1.0" encoding="UTF-8"?>
<svg version="1.1" xmlns="http://www.w3.org/2000/svg" width="512" height="512">
<path d="M0 0 C1.45108658 0.00273422 1.45108658 0.00273422 2.93148804 0.00552368 C17.26440977 0.05095174 31.21023917 0.55983928 45.3125 3.3125 C46.65803955 3.55395752 46.65803955 3.55395752 48.03076172 3.80029297 C107.84088904 14.62287989 165.35495829 48.68064457 202.3125 97.3125 C202.72918945 97.85277832 203.14587891 98.39305664 203.57519531 98.94970703 C211.2584873 108.9447116 218.00092968 119.40459036 224.3125 130.3125 C224.70679199 130.98974121 225.10108398 131.66698242 225.50732422 132.36474609 C238.68961173 155.2833756 247.29510918 180.85822563 252.625 206.6875 C252.77243652 207.39817627 252.91987305 208.10885254 253.07177734 208.84106445 C256.05713787 224.48358366 256.6873098 240.11919606 256.625 256 C256.62226578 257.45108658 256.62226578 257.45108658 256.61947632 258.93148804 C256.57404826 273.26440977 256.06516072 287.21023917 253.3125 301.3125 C253.15152832 302.20952637 252.99055664 303.10655273 252.82470703 304.03076172 C242.00212011 363.84088904 207.94435543 421.35495829 159.3125 458.3125 C158.77222168 458.72918945 158.23194336 459.14587891 157.67529297 459.57519531 C147.6802884 467.2584873 137.22040964 474.00092968 126.3125 480.3125 C125.63525879 480.70679199 124.95801758 481.10108398 124.26025391 481.50732422 C101.3416244 494.68961173 75.76677437 503.29510918 49.9375 508.625 C49.22682373 508.77243652 48.51614746 508.91987305 47.78393555 509.07177734 C32.14141634 512.05713787 16.50580394 512.6873098 0.625 512.625 C-0.34239105 512.62317719 -1.3097821 512.62135437 -2.30648804 512.61947632 C-16.63940977 512.57404826 -30.58523917 512.06516072 -44.6875 509.3125 C-45.58452637 509.15152832 -46.48155273 508.99055664 -47.40576172 508.82470703 C-107.21588904 498.00212011 -164.72995829 463.94435543 -201.6875 415.3125 C-202.10418945 414.77222168 -202.52087891 414.23194336 -202.95019531 413.67529297 C-210.6334873 403.6802884 -217.37592968 393.22040964 -223.6875 382.3125 C-224.08179199 381.63525879 -224.47608398 380.95801758 -224.88232422 380.26025391 C-238.06461173 357.3416244 -246.67010918 331.76677437 -252 305.9375 C-252.14743652 305.22682373 -252.29487305 304.51614746 -252.44677734 303.78393555 C-255.43213787 288.14141634 -256.0623098 272.50580394 -256 256.625 C-255.99817719 255.65760895 -255.99635437 254.6902179 -255.99447632 253.69351196 C-255.94904826 239.36059023 -255.44016072 225.41476083 -252.6875 211.3125 C-252.44604248 209.96696045 -252.44604248 209.96696045 -252.19970703 208.59423828 C-241.37712011 148.78411096 -207.31935543 91.27004171 -158.6875 54.3125 C-158.14722168 53.89581055 -157.60694336 53.47912109 -157.05029297 53.04980469 C-147.0552884 45.3665127 -136.59540964 38.62407032 -125.6875 32.3125 C-125.01025879 31.91820801 -124.33301758 31.52391602 -123.63525391 31.11767578 C-100.7166244 17.93538827 -75.14177437 9.32989082 -49.3125 4 C-48.60182373 3.85256348 -47.89114746 3.70512695 -47.15893555 3.55322266 C-31.51641634 0.56786213 -15.88080394 -0.0623098 0 0 Z " fill="#47A7F6" transform="translate(255.6875,-0.3125)"/>
<path d="M0 0 C2.00964279 -0.00962818 4.01914507 -0.04079161 6.02856445 -0.07226562 C19.17944678 -0.12386301 31.28842267 2.06959802 43.53833008 6.92773438 C44.87637695 7.45101318 44.87637695 7.45101318 46.24145508 7.98486328 C78.23704614 20.83734908 101.8502181 45.98228646 115.32348633 77.38085938 C116.30053742 79.98137558 117.16825783 82.58266242 117.97583008 85.24023438 C118.24911133 86.08199219 118.52239258 86.92375 118.80395508 87.79101562 C123.96996141 104.88441893 123.25075566 122.65840304 123.17861795 140.31524849 C123.1659642 143.94400391 123.16492873 147.57276401 123.16256714 151.20153809 C123.15639479 158.04694296 123.14004261 164.8922826 123.11986816 171.73765898 C123.09737553 179.54198354 123.08648241 187.34631151 123.07647729 195.15066051 C123.05567169 211.18055602 123.02057999 227.21038672 122.97583008 243.24023438 C106.17189206 243.28714528 89.36797559 243.32231612 72.56398773 243.34385872 C64.76000263 243.35413125 56.95605844 243.36811373 49.15209961 243.39111328 C42.34292047 243.41117133 35.53377099 243.42397997 28.72456312 243.42841136 C25.12573032 243.43099794 21.52698227 243.43699143 17.92817688 243.45169449 C-21.12657581 243.60504592 -53.94684145 237.08225151 -83.02416992 209.24023438 C-83.83370117 208.50546875 -84.64323242 207.77070313 -85.47729492 207.01367188 C-104.48997849 189.13696626 -118.71484056 160.94419434 -120.22729492 134.71801758 C-120.32803567 130.82816531 -120.35757021 126.9434177 -120.33666992 123.05273438 C-120.3344342 122.02468185 -120.3344342 122.02468185 -120.33215332 120.9758606 C-120.29203222 110.71907975 -119.70564189 101.16516309 -117.02416992 91.24023438 C-116.75733398 90.08652344 -116.49049805 88.9328125 -116.21557617 87.74414062 C-108.69369244 57.75689748 -86.91365147 32.26103847 -61.02416992 16.24023438 C-41.83787559 5.16769885 -22.09362864 0.06364747 0 0 Z " fill="#FEFEFE" transform="translate(243.024169921875,128.759765625)"/>
</svg>
